<svg width="100" height="100" viewBox="0 0 100 100" xmlns="http://www.w3.org/2000/svg">
  <rect width="100" height="100" fill="#7F3DFF"/>
  <path d="M25.3836 23.3053L19.0595 29.6266C17.4225 31.2637 17.4225 34.0758 19.0595 35.7129L25.3836 42.033C27.0207 43.67 29.8328 43.67 31.4699 42.033L37.794 35.7129C39.4311 34.0758 39.4311 31.2637 37.794 29.6266L31.4699 23.3053C29.8328 21.6683 27.0207 21.6683 25.3836 23.3053Z" fill="#FFFFFF"/>
  <path d="M39.8965 50.7298L34.9591 56.0379C33.4628 57.5389 33.4628 59.844 34.9591 61.345L39.8965 66.6531C41.3937 68.1541 43.6988 68.1541 45.1951 66.6531L50.1325 61.345C51.6288 59.844 51.6288 57.5389 50.1325 56.0379L45.1951 50.7298C43.6988 49.2288 41.3937 49.2288 39.8965 50.7298Z" fill="#FFFFFF"/>
  <path d="M60.1035 50.7298L65.0409 56.0379C66.5372 57.5389 66.5372 59.844 65.0409 61.345L60.1035 66.6531C58.6063 68.1541 56.3012 68.1541 54.8049 66.6531L49.8675 61.345C48.3712 59.844 48.3712 57.5389 49.8675 56.0379L54.8049 50.7298C56.3012 49.2288 58.6063 49.2288 60.1035 50.7298Z" fill="#FFFFFF"/>
  <path d="M74.6164 23.3053L68.2923 29.6266C66.6553 31.2637 66.6553 34.0758 68.2923 35.7129L74.6164 42.033C76.2535 43.67 79.0656 43.67 80.7026 42.033L87.0267 35.7129C88.6637 34.0758 88.6637 31.2637 87.0267 29.6266L80.7026 23.3053C79.0656 21.6683 76.2535 21.6683 74.6164 23.3053Z" fill="#FFFFFF"/>
  <path d="M50 84.1176C39.8235 84.1176 31.8824 76.1765 31.8824 66C31.8824 55.8235 39.8235 47.8824 50 47.8824C60.1765 47.8824 68.1176 55.8235 68.1176 66C68.1176 76.1765 60.1765 84.1176 50 84.1176ZM50 52.6471C42.5294 52.6471 36.1176 59.0588 36.1176 66C36.1176 72.4706 42.5294 78.8824 50 78.8824C57.4706 78.8824 63.8824 72.4706 63.8824 66C63.8824 59.0588 57.4706 52.6471 50 52.6471Z" fill="#FFFFFF"/>
</svg>